<svg id="Layer_1" data-name="Layer 1" xmlns="http://www.w3.org/2000/svg" viewBox="0 0 863.67 1034.9"><defs><style>.cls-1{fill:#bcbec0;}</style></defs><g id="Upside_down_smiley" data-name="Upside down smiley"><path class="cls-1" d="M602.79,682.5c-1.16-7.1-1.09-13.32,2.92-19.63,1.87-2.94.45-7.77,1.59-11.41,3.34-10.68,7.34-21.16,10.84-31.8,2-6.11,3.21-12.5,5.49-18.49.67-1.76-.26-8,5.47-4.29.25-.63.82-1.33.7-1.88a12.49,12.49,0,0,1,8.33-14.4,2.61,2.61,0,0,1,.74,0c-.67-9.67,10.24-10.32,13.52-17.36,2.33-5,7.17-9.08,11.52-12.85,11.85-10.29,19-24.08,28.4-36.24,2.59-3.37,6.52-6.69,11.85-6.91,1.46-.07,3.48-2.1,4.14-3.69,2.78-6.71,7.4-9.09,14.46-7.57,1.31.28,2.92-1.34,4.45-1.52a7.57,7.57,0,0,1,3.56,1.06c1.25.57,3.33,2.11,3.45,1.95,4.38-5.48,9.25-.25,11,1.4,3.33,3.06,4.32,8.76,10.75,5.54,5.84,7.17,10.13,15.05,11.76,24.3.64,3.6,3.42,7.47,2.63,10.56-2.41,9.52,1.48,17.87,3.21,26.65a8.48,8.48,0,0,1-.1,3.65c-1.36,5.19-3.15,10.28-4.22,15.52a111.94,111.94,0,0,0-1.55,13.7c-.58,7.37,1.44,16.36-2.1,21.74-5,7.54,3,17.84-6.71,23.32-.84.48,0,3.77-.14,5.73-.4,4.33-.85,8.67-1.48,13-.88,6.12-1.59,12.29-3.07,18.27-.91,3.7-3.17,7.06-4.69,10.63-1,2.3-2.22,4.65-2.51,7.09-1.6,13.41-.23,27.52-9.56,39,4.88,5.89-1.84,9.92-2.54,14.94A154.57,154.57,0,0,1,730.15,773c-2,7.26-4.46,14.43-6.95,21.56-2.79,8-5.47,16.11-8.89,23.86-3.51,7.94-6.81,16.36-12.15,23-4.56,5.67-6.84,15.93-18.13,13.67-1.43-.29-4,2.27-5.15,4.1-2.52,4.18-3.15,8.78-10.69,8-5.59-.56-11.53,4.07-17.54,5.23a42,42,0,0,1-14.4-.25A26.83,26.83,0,0,1,625.46,868c-4.1-2.83-7.6-6.6-11.09-10.22s-6.53-7.49-9.82-11.21c-6.15-6.94-7-15.62-8.21-24.25-.44-3.22-1.86-6.35-2-9.54-.29-8.48.06-17-.17-25.45-.11-4.25-1.51-8.51-1.31-12.72.72-14.84,1.74-29.67,3-44.47.26-3.11,3.38-6.57,2.61-9.08C594.34,707.63,601.81,695.64,602.79,682.5Z" transform="translate(-54.57 64.12)"/><path class="cls-1" d="M258.15,941.91c-6.68-6.51-8.61-14.68-10.74-22.75-1.54-5.87-3.35-11.71-4.39-17.68-1.35-7.76-2.11-15.63-3-23.47-.26-2.28.83-5.15-.2-6.82-3.89-6.34-1.7-13.45-3.19-19.78-3-12.54,3.83-25.71-3.74-38-2.13-3.46.1-9.4-.44-14.12-.59-5.27.33-10.82-4.06-15.58-1.66-1.79-.15-6.37-.35-9.66-.38-6.46-1.23-12.9-1.36-19.36-.12-6.15.41-12.32.72-18.48.06-1.14,1.07-2.64.63-3.34-5.06-8-.85-15.9-.19-23.88.85-10.37.86-20.82,1.94-31.15.38-3.65,2.9-7.06,4.3-10.63,1.09-2.77,2.43-5.55,2.82-8.44.57-4.16,0-8.49.61-12.65a135.64,135.64,0,0,1,3.68-18.47c2.72-9.4,5.77-18.74,9.3-27.87,1.71-4.45,4.94-8.3,7.25-12.56,3.57-6.61,6.07-14,10.6-19.85,7.16-9.24,15.63-17.47,23.56-26.11a5,5,0,0,1,1.17-.73c5.28,8.94,7.86-2.15,12.46-2.28,7.61-.21,15,1.22,19.95,4.83a99,99,0,0,1,22.38,23.71c4.65,6.76,6.52,15.5,9.24,23.49,3.18,9.33,6.67,18.64,8.62,28.24,1.34,6.57.07,13.63.32,20.46a138.79,138.79,0,0,0,1.52,16.67c.58,3.72,4.11,7.73-2.41,9.69-.42.13-.72,3.31-.13,3.74,7.08,5.07,3.92,12.18,3.81,18.59,0,1.37-1.51,2.7-2.31,4.07-.69,1.19-2.24,3-1.89,3.5,7,10.52,3.44,22.34,4.31,33.58.51,6.63,1.48,13.27,1.38,19.9-.17,11.46-1.06,22.92-1.55,34.38-.13,3.15-.52,6.5.31,9.44,1.42,5,3.18,9.59-1.32,13.92-.32.31,0,2,.56,2.4,6.54,4.47,2.69,10.09,2.22,15.6-.57,6.77-4.14,12.63-3.52,20.06.81,9.81-1.39,19.91-2.62,29.84-.34,2.72-5.39,5.73,1.08,7.49.38.1.81,2.11.43,2.61-5.37,6.92-2.85,15.3-4.5,22.89-.41,1.89-2.23,3.52-3.56,5.15-.36.43-1.29.38-2,.56,2.16,3.58,2.53,6.58-1.66,9.32-1.15.76-.79,3.66-1.37,5.49-.27.85-1.79,1.88-1.61,2.2,4.18,7.51-2.74,10.26-5.81,14.91-1.55,2.35.35,7.67-1.39,9.07A87.92,87.92,0,0,1,325.3,965.8c-5.59,2.52-12,3.26-18,4.79-3.11.79-12.67-1.16-15.75-2.54-2.07-.93-4.59-.9-6.93-1.14-8.38-.86-11.86-8.67-18-12.53-4.82-3-6.19-7.54-8.42-12.47m30-128.59c4.16,4.16,8.29,8.34,12.53,12.43.3.28,1.62,0,2-.39a2,2,0,0,0-.09-2c-2-1.69-4.3-3-6.06-4.85-1-1.06-1.14-2.94-1.67-4.45,1.36.37,3,.35,4,1.17,2.45,2,4.42,4.7,6.95,6.62,1,.78,3.13.71,4.51.28,1.68-.51,3.12-1.81,4.66-2.77.06,2.32.28,4.66.11,7-.1,1.25-1.55,3.26-1.22,3.54a28.07,28.07,0,0,0,6.43,4c.48.22,1.95-1.23,2.6-2.17.22-.3-.87-1.36-1.06-2.14-.64-2.73-2.59-6.72-1.47-8,6.6-7.8,3.17-16.87,4.07-25.32,1.16-11,1.56-22.14,3.21-33.07.77-5.08,2.92-9.7-1.36-14.18-.58-.6-.41-3.11,0-3.28,5.66-2.28,2.61-7,2.44-10.25-.42-8.07,4.82-17.29-4.18-24-.41-.3.35-2.18.56-3.33.78.81,1.58,1.58,2.32,2.42.53.6,1,1.28,1.47,1.93.5-.88,1.4-1.75,1.42-2.64,0-1.61-.73-3.24-.68-4.85.21-7.1-5.6-13.54-2.4-21,.09-.23-3.21-2.81-4.16-2.42-8.89,3.67-19,5.26-25.71,13-4.94,5.64-6.05,2.32-7-2.45-.21-1.07-.55-2.12-.82-3.18-.72,1.19-1.9,2.32-2.05,3.57-.69,5.45-1.23,10.94-1.52,16.42-.24,4.52-.95,9.31.21,13.52,1.11,4,4.8,7.28-.73,10.87-1,.66-1.13,5-.79,5.11,6,2.06,1.11,5.21.95,7.81a23.82,23.82,0,0,0-.18,5c.43,2.71,2.71,6.59,1.66,7.82-4.54,5.35-4.66,8,3,9.1.83.11,1.16,3.72,1.72,5.71-1.18-.63-2.34-1.34-3.56-1.88a16.4,16.4,0,0,0-2.61-.68c0,1.86-.58,4.17.29,5.49,1.59,2.42,5.39,4.16-.16,6.43-.83.34-.93,2.46-1.37,3.76a24,24,0,0,0,3.75,1c.65.08,1.39-.47,2.08-.74a7.13,7.13,0,0,1-.89,2.5c-5.85,6.43-6.63,15-1.23,23.54m20-135.64,4.32.12c-.06-.63-.12-1.27-.19-1.91A17.17,17.17,0,0,0,308.18,677.68Z" transform="translate(-54.57 64.12)"/><path class="cls-1" d="M501.71,76.66c-3.65.54-8.25-2.14-8.66,4.22-5.38-2.78-8.8,1.47-12.88,3.52a72.08,72.08,0,0,1-7.64,3c-1.51.55-3.74,1.9-4.46,1.35-6.15-4.73-8.89,1.39-13.24,3.37-8.29,3.76-14.87,11.92-25.47,10.3-1.25-.19-2.94,2.15-4.34,3.42-1.1,1-1.86,2.54-3.11,3.09-7.51,3.32-15.14,6.38-22.67,9.66a6.21,6.21,0,0,0-2.37,2.47c-2.14,3.47-2.85,8.18-9,7.25-6.59-1-9.35,5.61-14.12,8.34-4.31,2.47-4,3-9.77,1.69-.34-.07-.95-.13-1,0-4.75,9.8-14.71,13.11-23,18.46-3.49,2.24-9.35,3.52-10.27,6.45-2,6.26-3.51,5.9-7.26,1.9-.23-.25-2.07.51-2.65,1.22-1.17,1.41-1.83,3.22-3,4.66-2.7,3.45-8.35-2.48-10.45,3.2-1.81,4.92-8.13,4.64-10,7-4.33,5.29-11.13,2.63-15,7-.53.6-1.11,1.16-1.66,1.74.77-.09,1.72-.5,2.26-.19a30.6,30.6,0,0,1,3.67,2.79c-1.1.53-2.23,1.57-3.29,1.51-12.78-.78-20.35,6.84-27.09,16.21-1.43,2-4.21,4.55-6.15,4.37-8.15-.76-12.87,4.58-18.74,8.53-6.6,4.44-14.25,7.31-21.19,11.29a15.79,15.79,0,0,0-6.2,6.25c-2.1,4.3-4.3,6.45-9.41,4.78-.81-.26-2.71,3.38-4.35,4.95-3.85,3.67-7.73,7.34-11.81,10.74-14.72,12.25-24.51,28.76-37.28,42.62-6.53,7.08-6,16.95-12.85,23.84a64.35,64.35,0,0,0-13.21,20.8c-1.83,4.51-4.8,8.77-5.23,14.27-.3,3.75-3.92,7.7-6.93,10.68-5.53,5.49-11.88,10.14-17.56,15.49-4,3.8-18.45,2.26-22.89-1.3-7.19-5.77-9.11-11.68-4.13-19.58a1.62,1.62,0,0,0,0-1.44c-6-8.63,2.72-13.46,5.38-19.67,2.43-5.63,6.32-10.63,9.45-16,2.09-3.56,3.79-7.36,6-10.84,4.32-6.85,7.87-14.6,13.6-20,5-4.66,7.21-10.62,10.46-15.83,4.3-6.88,9.07-11.48,16.81-13.22a1.64,1.64,0,0,0,1-1c2.35-12.15,15-15.51,21.37-24.68,4-5.86,9.68-13.67,19.29-14.85,2.39-.29,3.9-5.3,6.45-7.33,5.1-4,10.62-7.56,16-11.19.91-.61,2.69-.28,3.23-1,7.64-10.45,21.47-11.3,30.44-19.72a112.4,112.4,0,0,1,12.8-9.92c1.62-1.13,4-1.16,5.79-2.06,2-1,3.81-2.5,5.76-3.68,4.54-2.74,9.18-5.33,13.66-8.15,6.06-3.81,11.9-8,18-11.62,6.31-3.75,13.19-6.61,19.24-10.71,6.72-4.56,16.66-2.57,21.4-11.69,1.54-3,7.27-3.69,11-5.63,4.48-2.33,9-4.69,13.23-7.37,2.22-1.39,3.53-5.11,6.91-1.87.37-.46,1.14-1.06,1-1.37-1.61-4.79,1.19-2.7,3.8-3.46,5.33-1.55,9.92-5.51,15-8,7.79-3.83,15.9-7,23.61-11,5.74-2.94,11-6.78,16.63-10,1.74-1,4.59-2.29,5.79-1.57,3.16,1.91,4.28,2,4.08-2a5.55,5.55,0,0,1,.73-2.49c9.86,1.75,15.36-7.45,23.87-9.39,15.72-3.58,29.41-13.1,46-15.07,9.38-1.11,18.19-6.45,27.48-9.08,6.72-1.9,13.82-2.46,20.74-3.64,6.77-1.15,13.5-3,20.31-3.3,6.46-.31,12.63-5.64,19.43-1.24.63.41,2.13-.79,3.24-.84,10.32-.46,20.63-1,31-1.15,8.88-.1,17.76.39,26.65.6,3.15.08,7.16-1.13,9.31.36,9.28,6.46,21,3.72,30.57,9,2.73,1.51,6.31,1.39,9.29,2.57,7,2.77,13.83,6,20.8,8.81,10,4.07,20.46,7.25,30,12.19,7.26,3.75,13.36,9.71,20.08,14.55,2.32,1.67,5,2.82,7.38,4.44,3.07,2.11,5.89,4.6,9,6.66,3.64,2.43,7.81,4.18,11.16,6.94,6,4.93,11.41,10.55,17.3,15.59,8.46,7.25,17.47,13.88,25.57,21.5,4,3.73,6.45,9.08,9.57,13.73.77,1.14,1.13,2.73,2.15,3.51,17.37,13.45,24,35,38.39,50.82a65.84,65.84,0,0,1,13.83,24.35c2.26,7.44,7.39,12,11.08,18a17.52,17.52,0,0,1,2.68,6.27c.49,3.13-1.13,7.27,4.84,6.27.68-.11,2.83,3,2.52,3.49-3.07,4.77,1.94,6.93,3,10.3,2.12,6.88,5,13.72,5.68,20.75.33,3.4-4.78,7.06-5.27,10.88-.93,7.15-6,3.71-9.31,4.86-7.82,2.68-12.69.64-15.72-7.43-1-2.59-5.47-3.64-7.58-6.06a163.94,163.94,0,0,1-10.72-14.13c-6.27-8.92-11.4-18.14-13.61-29.26a51.5,51.5,0,0,0-10-21.83c-5.23-6.41-8.61-13.83-13.73-20.1-3.69-4.51-6.58-8.51-6.06-15.06.19-2.43-5.57-5-7.8-8-5.88-8.1-10.65-17.11-17.23-24.55-2.82-3.2-4-8.87-9.9-9.45-1.77-.17-3.49-2.39-5-3.92-9.42-9.82-18.63-19.85-28.25-29.47-2.13-2.13-6-4.47-8.47-4-6.19,1.18-5.76-3.69-7.9-6.55-3.89-5.19-7.72-10.71-15.28-11-1,0-2.76-.8-2.94-1.53-1.55-6.15-6.44-3.63-10.14-4.06-.66-.07-1.4.55-2.1.85,1.48-9.28-8.23-5.4-11.47-9.61-2.9-3.75-7.54-6.21-11.57-9-1.26-.88-3.42-1.9-4.47-1.4-7.34,3.52-12.31-2.21-17.61-4.85-5.58-2.79-11.33-3.17-16.92-4.72-7.33-2-16.07,1.07-22.24-5.59-.93-1-3.42-.43-4.53-1.37-3.48-3-6,4.73-10.39.32-2-2-7.75-.32-11.8-.22s-7.63-.2-11.84,2.4c-3.09,1.91-9.27-1.62-14.13-2-3.7-.26-9.2-3.43-10,4.1-.06.53-1.64,1.47-1.89,1.3-8.13-5.53-15.14,2.18-22.79,1.87-9.2-.37-16.44,4.49-23.84,9-.84.5-2.69.9-2.93.56-3.56-5.21-7.18-.42-11.1.19M249.34,207.48,247.43,210c.89.14,2.26.71,2.58.34C250.6,209.68,250.59,208.47,249.34,207.48Z" transform="translate(-54.57 64.12)"/><path class="cls-1" d="M674-61.64a13.22,13.22,0,0,1-4.08-1.31,17.55,17.55,0,0,1,3.4-1.17C673.5-64.16,674-62.75,674-61.64Z" transform="translate(-54.57 64.12)"/><path class="cls-1" d="M290.76,797.38c3.68,1.82,6.06,10,4,12.79-.63.86-2.79,1.8-3,1.55-1.17-1.23-2.68-2.85-2.68-4.33C289.05,804.18,289.89,801,290.76,797.38Z" transform="translate(-54.57 64.12)"/><path class="cls-1" d="M297.8,762.92c-.91-.17-1.26-.39-1.23-.51.64-2.31,1.31-4.61,2.07-6.88,0,0,1.23.31,1.88.47A26.87,26.87,0,0,1,297.8,762.92Z" transform="translate(-54.57 64.12)"/></g></svg>